<svg width="40" height="40" viewBox="0 0 40 40" fill="none" xmlns="http://www.w3.org/2000/svg">
<path d="M29.0625 1.875H10.9375C5.93242 1.875 1.875 5.93242 1.875 10.9375V29.0625C1.875 34.0676 5.93242 38.125 10.9375 38.125H29.0625C34.0676 38.125 38.125 34.0676 38.125 29.0625V10.9375C38.125 5.93242 34.0676 1.875 29.0625 1.875Z" stroke="white" stroke-width="3.625" stroke-linecap="round" stroke-linejoin="round"/>
<path d="M27.25 18.8581C27.4737 20.3666 27.216 21.9071 26.5137 23.2607C25.8113 24.6143 24.7001 25.7119 23.3379 26.3975C21.9758 27.0831 20.4322 27.3218 18.9266 27.0795C17.421 26.8372 16.0302 26.1264 14.9519 25.0481C13.8736 23.9698 13.1628 22.579 12.9205 21.0734C12.6782 19.5678 12.9169 18.0242 13.6025 16.662C14.2881 15.2999 15.3857 14.1886 16.7393 13.4863C18.0929 12.784 19.6334 12.5263 21.1419 12.75C22.6805 12.9782 24.105 13.6951 25.2049 14.795C26.3048 15.895 27.0218 17.3194 27.25 18.8581Z" stroke="white" stroke-width="3.625" stroke-linecap="round" stroke-linejoin="round"/>
<path d="M29.9688 10.0312H29.9866" stroke="white" stroke-width="3.625" stroke-linecap="round" stroke-linejoin="round"/>
</svg>
