<svg width="40" height="40" viewBox="0 0 40 40" fill="none" xmlns="http://www.w3.org/2000/svg">
<path d="M27.25 13.6562C30.1342 13.6562 32.9003 14.802 34.9398 16.8415C36.9792 18.8809 38.125 21.647 38.125 24.5312V37.2188H30.875V24.5312C30.875 23.5698 30.4931 22.6478 29.8133 21.968C29.1334 21.2882 28.2114 20.9062 27.25 20.9062C26.2886 20.9062 25.3666 21.2882 24.6867 21.968C24.0069 22.6478 23.625 23.5698 23.625 24.5312V37.2188H16.375V24.5312C16.375 21.647 17.5208 18.8809 19.5602 16.8415C21.5997 14.802 24.3658 13.6563 27.25 13.6562Z" stroke="#FEFDFF" stroke-width="3.625" stroke-linecap="round" stroke-linejoin="round"/>
<path d="M9.125 15.4688H1.875V37.2188H9.125V15.4688Z" stroke="#FEFDFF" stroke-width="3.625" stroke-linecap="round" stroke-linejoin="round"/>
<path d="M5.5 10.0312C7.50203 10.0312 9.125 8.40828 9.125 6.40625C9.125 4.40422 7.50203 2.78125 5.5 2.78125C3.49797 2.78125 1.875 4.40422 1.875 6.40625C1.875 8.40828 3.49797 10.0312 5.5 10.0312Z" stroke="#FEFDFF" stroke-width="3.625" stroke-linecap="round" stroke-linejoin="round"/>
</svg>
