<svg width="38" height="38" viewBox="0 0 38 38" fill="none" xmlns="http://www.w3.org/2000/svg">
<path d="M35.7496 20.2112C35.4601 23.3437 34.2845 26.329 32.3602 28.8178C30.436 31.3065 27.8428 33.1958 24.884 34.2645C21.9253 35.3333 18.7233 35.5372 15.6528 34.8526C12.5824 34.168 9.77037 32.623 7.5459 30.3985C5.32143 28.1741 3.77649 25.3621 3.09184 22.2916C2.4072 19.2211 2.61118 16.0192 3.67991 13.0604C4.74864 10.1016 6.63792 7.50841 9.12668 5.58419C11.6154 3.65997 14.6007 2.48434 17.7333 2.19485C15.8993 4.67604 15.0167 7.73308 15.2462 10.81C15.4756 13.8868 16.8018 16.7792 18.9836 18.9609C21.1653 21.1426 24.0576 22.4688 27.1345 22.6983C30.2114 22.9277 33.2684 22.0452 35.7496 20.2112Z" stroke="white" stroke-width="3.68056" stroke-linecap="round" stroke-linejoin="round"/>
</svg>
